<svg width="84" height="82" viewBox="0 0 84 82" fill="none" xmlns="http://www.w3.org/2000/svg">
<rect x="2" width="82" height="82" rx="41" fill="#BC2929"/>
<path d="M42.2633 21.1386C20.7896 21.1386 1 38.5554 1 39.7014C1 40.8474 18.8246 53.76 42.2633 53.76" stroke="black"/>
<path d="M42.0567 21.1389C63.5305 21.1389 83.32 38.5557 83.32 39.7017C83.32 40.8477 65.4954 53.7603 42.0567 53.7603" stroke="black"/>
<path d="M12.8751 39.8173C18.2552 42.5495 15.9035 48.4299 15.9035 48.4299L10.0267 45.762L4.31559 42.5451C4.31559 42.5451 7.49497 37.0851 12.8751 39.8173Z" fill="black"/>
<path d="M1.33141 40.5228C1.33141 40.5228 6.45446 31.7249 15.1236 36.1274C23.7928 40.53 20.0035 50.0053 20.0035 50.0053" stroke="black"/>
<path d="M42.3557 47.2132C36.3461 47.2132 35.8838 53.5468 35.8838 53.5468H48.8276C48.8276 53.5468 48.3653 47.2132 42.3557 47.2132Z" fill="black"/>
<path d="M52.4039 52.9219C52.4039 52.9219 51.6908 42.8863 42.42 42.8863C33.1492 42.8863 32.4361 52.9219 32.4361 52.9219" stroke="black"/>
<path d="M71.5434 39.8174C66.1633 42.5496 68.515 48.43 68.515 48.43L74.3919 45.7621L80.1029 42.5452C80.1029 42.5452 76.9235 37.0852 71.5434 39.8174Z" fill="black"/>
<path d="M82.8858 40.5259C82.8858 40.5259 77.8074 31.8046 69.2137 36.1688C60.6201 40.533 64.3764 49.9257 64.3764 49.9257" stroke="black"/>
<path d="M32.7816 31.1942C32.7816 36.5577 37.04 40.8883 42.2719 40.8883C47.5037 40.8883 51.7621 36.5577 51.7621 31.1942C51.7621 25.8307 47.5037 21.5 42.2719 21.5C37.04 21.5 32.7816 25.8307 32.7816 31.1942Z" stroke="black"/>
<ellipse cx="42.5716" cy="31.5" rx="6.174" ry="6.3" fill="black"/>
</svg>
